
**** Northern.Lights.2009.DVDRiP.XviD.OPTIONAL-NORDIC_SUB-Zen_Bud ****

Format                           : AVI
File size                        : 705 MiB
Duration                         : 1h 27mn
Overall bit rate                 : 1 126 Kbps

Video

Format                           : MPEG-4 Visual
Codec ID/Hint                    : XviD
Duration                         : 1h 27mn
Bit rate                         : 985 Kbps
Width                            : 720 pixels
Height                           : 572 pixels
Display aspect ratio             : 16:9
Stream size                      : 617 MiB (87%)
Writing library                  : XviD 1.1.2 (UTC 2006-11-01)

Audio

Format                           : MPEG Audio
Codec ID/Hint                    : MP3
Duration                         : 1h 27mn
Bit rate                         : 128 Kbps
Channel(s)                       : 2 channels
Sampling rate                    : 48.0 KHz
Stream size                      : 80.2 MiB (11%)
Writing library                  : LAME3.98
Language                         : English

Text #1
Language                         : Swedish

Text #2
Language                         : Danish

Text #3
Language                         : Norwegian

Text #4
Language                         : Finnish
